<svg width="374" height="24" viewBox="0 0 374 24" fill="none" xmlns="http://www.w3.org/2000/svg">
<path d="M2.25 9.75L9 4.5L15.75 9.75V18C15.75 18.3978 15.592 18.7794 15.3107 19.0607C15.0294 19.342 14.6478 19.5 14.25 19.5H3.75C3.35218 19.5 2.97064 19.342 2.68934 19.0607C2.40804 18.7794 2.25 18.3978 2.25 18V9.75Z" stroke="#2DB8A1" stroke-width="1.5" stroke-linecap="round" stroke-linejoin="round"/>
<path d="M6.75 19.5V12H11.25V19.5" stroke="#2DB8A1" stroke-width="1.5" stroke-linecap="round" stroke-linejoin="round"/>
<path d="M36.08 6.88V18H34.256V13.136H29.024V18H27.2V6.88H29.024V11.648H34.256V6.88H36.08ZM42.1469 18.144C41.3149 18.144 40.5629 17.9573 39.8909 17.584C39.2189 17.2 38.6909 16.6667 38.3069 15.984C37.9229 15.2907 37.7309 14.4907 37.7309 13.584C37.7309 12.688 37.9283 11.8933 38.3229 11.2C38.7176 10.5067 39.2563 9.97333 39.9389 9.6C40.6216 9.22667 41.3843 9.04 42.2269 9.04C43.0696 9.04 43.8323 9.22667 44.5149 9.6C45.1976 9.97333 45.7363 10.5067 46.1309 11.2C46.5256 11.8933 46.7229 12.688 46.7229 13.584C46.7229 14.48 46.5203 15.2747 46.1149 15.968C45.7096 16.6613 45.1549 17.2 44.4509 17.584C43.7576 17.9573 42.9896 18.144 42.1469 18.144ZM42.1469 16.56C42.6163 16.56 43.0536 16.448 43.4589 16.224C43.8749 16 44.2109 15.664 44.4669 15.216C44.7229 14.768 44.8509 14.224 44.8509 13.584C44.8509 12.944 44.7283 12.4053 44.4829 11.968C44.2376 11.52 43.9123 11.184 43.5069 10.96C43.1016 10.736 42.6643 10.624 42.1949 10.624C41.7256 10.624 41.2883 10.736 40.8829 10.96C40.4883 11.184 40.1736 11.52 39.9389 11.968C39.7043 12.4053 39.5869 12.944 39.5869 13.584C39.5869 14.5333 39.8269 15.2693 40.3069 15.792C40.7976 16.304 41.4109 16.56 42.1469 16.56ZM59.0397 9.04C59.733 9.04 60.3517 9.184 60.8957 9.472C61.4504 9.76 61.8824 10.1867 62.1917 10.752C62.5117 11.3173 62.6717 12 62.6717 12.8V18H60.8637V13.072C60.8637 12.2827 60.6664 11.68 60.2717 11.264C59.877 10.8373 59.3384 10.624 58.6557 10.624C57.973 10.624 57.429 10.8373 57.0237 11.264C56.629 11.68 56.4317 12.2827 56.4317 13.072V18H54.6237V13.072C54.6237 12.2827 54.4264 11.68 54.0317 11.264C53.637 10.8373 53.0984 10.624 52.4157 10.624C51.733 10.624 51.189 10.8373 50.7837 11.264C50.389 11.68 50.1917 12.2827 50.1917 13.072V18H48.3677V9.184H50.1917V10.192C50.4904 9.82933 50.869 9.54667 51.3277 9.344C51.7864 9.14133 52.277 9.04 52.7997 9.04C53.5037 9.04 54.133 9.18933 54.6877 9.488C55.2424 9.78667 55.669 10.2187 55.9677 10.784C56.2344 10.2507 56.6504 9.82933 57.2157 9.52C57.781 9.2 58.389 9.04 59.0397 9.04ZM72.9144 13.376C72.9144 13.7067 72.893 14.0053 72.8504 14.272H66.1144C66.1677 14.976 66.429 15.5413 66.8984 15.968C67.3677 16.3947 67.9437 16.608 68.6264 16.608C69.6077 16.608 70.301 16.1973 70.7064 15.376H72.6744C72.4077 16.1867 71.9224 16.8533 71.2184 17.376C70.525 17.888 69.661 18.144 68.6264 18.144C67.7837 18.144 67.0264 17.9573 66.3544 17.584C65.693 17.2 65.1704 16.6667 64.7864 15.984C64.413 15.2907 64.2264 14.4907 64.2264 13.584C64.2264 12.6773 64.4077 11.8827 64.7704 11.2C65.1437 10.5067 65.661 9.97333 66.3224 9.6C66.9944 9.22667 67.7624 9.04 68.6264 9.04C69.4584 9.04 70.1997 9.22133 70.8504 9.584C71.501 9.94667 72.0077 10.4587 72.3704 11.12C72.733 11.7707 72.9144 12.5227 72.9144 13.376ZM71.0104 12.8C70.9997 12.128 70.7597 11.5893 70.2904 11.184C69.821 10.7787 69.2397 10.576 68.5464 10.576C67.917 10.576 67.3784 10.7787 66.9304 11.184C66.4824 11.5787 66.2157 12.1173 66.1304 12.8H71.0104Z" fill="#2DB8A1"/>
<path d="M121.75 11.625C121.753 12.6149 121.521 13.5914 121.075 14.475C120.546 15.5338 119.732 16.4244 118.726 17.047C117.719 17.6696 116.559 17.9996 115.375 18C114.385 18.0026 113.409 17.7713 112.525 17.325L108.25 18.75L109.675 14.475C109.229 13.5914 108.997 12.6149 109 11.625C109 10.4413 109.33 9.28116 109.953 8.27443C110.576 7.26771 111.466 6.4542 112.525 5.92502C113.409 5.47872 114.385 5.24744 115.375 5.25002H115.75C117.313 5.33627 118.79 5.99609 119.897 7.10317C121.004 8.21024 121.664 9.68676 121.75 11.25V11.625Z" stroke="#949796" stroke-width="1.5" stroke-linecap="round" stroke-linejoin="round"/>
<path d="M144.544 6.928V18H143.088V9.744L139.408 18H138.384L134.688 9.728V18H133.232V6.928H134.8L138.896 16.08L142.992 6.928H144.544ZM154.855 13.28C154.855 13.5573 154.839 13.8507 154.807 14.16H147.799C147.852 15.024 148.146 15.7013 148.679 16.192C149.223 16.672 149.879 16.912 150.647 16.912C151.276 16.912 151.799 16.768 152.215 16.48C152.642 16.1813 152.94 15.7867 153.111 15.296H154.679C154.444 16.1387 153.975 16.8267 153.271 17.36C152.567 17.8827 151.692 18.144 150.647 18.144C149.815 18.144 149.068 17.9573 148.407 17.584C147.756 17.2107 147.244 16.6827 146.871 16C146.498 15.3067 146.311 14.5067 146.311 13.6C146.311 12.6933 146.492 11.8987 146.855 11.216C147.218 10.5333 147.724 10.0107 148.375 9.648C149.036 9.27467 149.794 9.088 150.647 9.088C151.479 9.088 152.215 9.26933 152.855 9.632C153.495 9.99467 153.986 10.496 154.327 11.136C154.679 11.7653 154.855 12.48 154.855 13.28ZM153.351 12.976C153.351 12.4213 153.228 11.9467 152.983 11.552C152.738 11.1467 152.402 10.8427 151.975 10.64C151.559 10.4267 151.095 10.32 150.583 10.32C149.847 10.32 149.218 10.5547 148.695 11.024C148.183 11.4933 147.89 12.144 147.815 12.976H153.351ZM159.722 18.144C159.05 18.144 158.448 18.032 157.914 17.808C157.381 17.5733 156.96 17.2533 156.65 16.848C156.341 16.432 156.17 15.9573 156.138 15.424H157.642C157.685 15.8613 157.888 16.2187 158.25 16.496C158.624 16.7733 159.109 16.912 159.706 16.912C160.261 16.912 160.698 16.7893 161.018 16.544C161.338 16.2987 161.498 15.9893 161.498 15.616C161.498 15.232 161.328 14.9493 160.986 14.768C160.645 14.576 160.117 14.3893 159.402 14.208C158.752 14.0373 158.218 13.8667 157.802 13.696C157.397 13.5147 157.045 13.2533 156.746 12.912C156.458 12.56 156.314 12.1013 156.314 11.536C156.314 11.088 156.448 10.6773 156.714 10.304C156.981 9.93067 157.36 9.63733 157.85 9.424C158.341 9.2 158.901 9.088 159.53 9.088C160.501 9.088 161.285 9.33333 161.882 9.824C162.48 10.3147 162.8 10.9867 162.842 11.84H161.386C161.354 11.3813 161.168 11.0133 160.826 10.736C160.496 10.4587 160.048 10.32 159.482 10.32C158.96 10.32 158.544 10.432 158.234 10.656C157.925 10.88 157.77 11.1733 157.77 11.536C157.77 11.824 157.861 12.064 158.042 12.256C158.234 12.4373 158.469 12.5867 158.746 12.704C159.034 12.8107 159.429 12.9333 159.93 13.072C160.56 13.2427 161.072 13.4133 161.466 13.584C161.861 13.744 162.197 13.9893 162.474 14.32C162.762 14.6507 162.912 15.0827 162.922 15.616C162.922 16.096 162.789 16.528 162.522 16.912C162.256 17.296 161.877 17.6 161.386 17.824C160.906 18.0373 160.352 18.144 159.722 18.144ZM167.924 18.144C167.251 18.144 166.649 18.032 166.115 17.808C165.582 17.5733 165.161 17.2533 164.851 16.848C164.542 16.432 164.371 15.9573 164.339 15.424H165.843C165.886 15.8613 166.089 16.2187 166.451 16.496C166.825 16.7733 167.31 16.912 167.907 16.912C168.462 16.912 168.9 16.7893 169.22 16.544C169.54 16.2987 169.7 15.9893 169.7 15.616C169.7 15.232 169.529 14.9493 169.188 14.768C168.846 14.576 168.318 14.3893 167.603 14.208C166.953 14.0373 166.419 13.8667 166.003 13.696C165.598 13.5147 165.246 13.2533 164.947 12.912C164.659 12.56 164.515 12.1013 164.515 11.536C164.515 11.088 164.649 10.6773 164.915 10.304C165.182 9.93067 165.561 9.63733 166.051 9.424C166.542 9.2 167.102 9.088 167.731 9.088C168.702 9.088 169.486 9.33333 170.083 9.824C170.681 10.3147 171.001 10.9867 171.043 11.84H169.588C169.555 11.3813 169.369 11.0133 169.027 10.736C168.697 10.4587 168.249 10.32 167.683 10.32C167.161 10.32 166.745 10.432 166.435 10.656C166.126 10.88 165.971 11.1733 165.971 11.536C165.971 11.824 166.062 12.064 166.243 12.256C166.435 12.4373 166.67 12.5867 166.947 12.704C167.235 12.8107 167.63 12.9333 168.131 13.072C168.761 13.2427 169.273 13.4133 169.668 13.584C170.062 13.744 170.398 13.9893 170.675 14.32C170.964 14.6507 171.113 15.0827 171.123 15.616C171.123 16.096 170.99 16.528 170.723 16.912C170.457 17.296 170.078 17.6 169.588 17.824C169.107 18.0373 168.553 18.144 167.924 18.144ZM172.477 13.584C172.477 12.688 172.658 11.904 173.021 11.232C173.383 10.5493 173.879 10.0213 174.509 9.648C175.149 9.27467 175.858 9.088 176.637 9.088C177.405 9.088 178.071 9.25333 178.637 9.584C179.202 9.91467 179.623 10.3307 179.901 10.832V9.232H181.373V18H179.901V16.368C179.613 16.88 179.181 17.3067 178.605 17.648C178.039 17.9787 177.378 18.144 176.621 18.144C175.842 18.144 175.138 17.952 174.509 17.568C173.879 17.184 173.383 16.6453 173.021 15.952C172.658 15.2587 172.477 14.4693 172.477 13.584ZM179.901 13.6C179.901 12.9387 179.767 12.3627 179.501 11.872C179.234 11.3813 178.871 11.008 178.413 10.752C177.965 10.4853 177.469 10.352 176.925 10.352C176.381 10.352 175.885 10.48 175.437 10.736C174.989 10.992 174.631 11.3653 174.365 11.856C174.098 12.3467 173.965 12.9227 173.965 13.584C173.965 14.256 174.098 14.8427 174.365 15.344C174.631 15.8347 174.989 16.2133 175.437 16.48C175.885 16.736 176.381 16.864 176.925 16.864C177.469 16.864 177.965 16.736 178.413 16.48C178.871 16.2133 179.234 15.8347 179.501 15.344C179.767 14.8427 179.901 14.2613 179.901 13.6ZM187.291 9.088C188.048 9.088 188.709 9.25333 189.275 9.584C189.851 9.91467 190.277 10.3307 190.555 10.832V9.232H192.027V18.192C192.027 18.992 191.856 19.7013 191.515 20.32C191.173 20.9493 190.683 21.44 190.043 21.792C189.413 22.144 188.677 22.32 187.835 22.32C186.683 22.32 185.723 22.048 184.955 21.504C184.187 20.96 183.733 20.2187 183.595 19.28H185.035C185.195 19.8133 185.525 20.24 186.027 20.56C186.528 20.8907 187.131 21.056 187.835 21.056C188.635 21.056 189.285 20.8053 189.787 20.304C190.299 19.8027 190.555 19.0987 190.555 18.192V16.352C190.267 16.864 189.84 17.2907 189.275 17.632C188.709 17.9733 188.048 18.144 187.291 18.144C186.512 18.144 185.803 17.952 185.163 17.568C184.533 17.184 184.037 16.6453 183.675 15.952C183.312 15.2587 183.131 14.4693 183.131 13.584C183.131 12.688 183.312 11.904 183.675 11.232C184.037 10.5493 184.533 10.0213 185.163 9.648C185.803 9.27467 186.512 9.088 187.291 9.088ZM190.555 13.6C190.555 12.9387 190.421 12.3627 190.155 11.872C189.888 11.3813 189.525 11.008 189.067 10.752C188.619 10.4853 188.123 10.352 187.579 10.352C187.035 10.352 186.539 10.48 186.091 10.736C185.643 10.992 185.285 11.3653 185.019 11.856C184.752 12.3467 184.619 12.9227 184.619 13.584C184.619 14.256 184.752 14.8427 185.019 15.344C185.285 15.8347 185.643 16.2133 186.091 16.48C186.539 16.736 187.035 16.864 187.579 16.864C188.123 16.864 188.619 16.736 189.067 16.48C189.525 16.2133 189.888 15.8347 190.155 15.344C190.421 14.8427 190.555 14.2613 190.555 13.6ZM195.081 7.808C194.804 7.808 194.569 7.712 194.377 7.52C194.185 7.328 194.089 7.09333 194.089 6.816C194.089 6.53867 194.185 6.304 194.377 6.112C194.569 5.92 194.804 5.824 195.081 5.824C195.348 5.824 195.572 5.92 195.753 6.112C195.945 6.304 196.041 6.53867 196.041 6.816C196.041 7.09333 195.945 7.328 195.753 7.52C195.572 7.712 195.348 7.808 195.081 7.808ZM195.785 9.232V18H194.329V9.232H195.785ZM202.38 9.072C203.447 9.072 204.311 9.39733 204.972 10.048C205.633 10.688 205.964 11.616 205.964 12.832V18H204.524V13.04C204.524 12.1653 204.305 11.4987 203.868 11.04C203.431 10.5707 202.833 10.336 202.076 10.336C201.308 10.336 200.695 10.576 200.236 11.056C199.788 11.536 199.564 12.2347 199.564 13.152V18H198.108V9.232H199.564V10.48C199.852 10.032 200.241 9.68533 200.732 9.44C201.233 9.19467 201.783 9.072 202.38 9.072ZM211.8 9.088C212.557 9.088 213.219 9.25333 213.784 9.584C214.36 9.91467 214.787 10.3307 215.064 10.832V9.232H216.536V18.192C216.536 18.992 216.365 19.7013 216.024 20.32C215.683 20.9493 215.192 21.44 214.552 21.792C213.923 22.144 213.187 22.32 212.344 22.32C211.192 22.32 210.232 22.048 209.464 21.504C208.696 20.96 208.243 20.2187 208.104 19.28H209.544C209.704 19.8133 210.035 20.24 210.536 20.56C211.037 20.8907 211.64 21.056 212.344 21.056C213.144 21.056 213.795 20.8053 214.296 20.304C214.808 19.8027 215.064 19.0987 215.064 18.192V16.352C214.776 16.864 214.349 17.2907 213.784 17.632C213.219 17.9733 212.557 18.144 211.8 18.144C211.021 18.144 210.312 17.952 209.672 17.568C209.043 17.184 208.547 16.6453 208.184 15.952C207.821 15.2587 207.64 14.4693 207.64 13.584C207.64 12.688 207.821 11.904 208.184 11.232C208.547 10.5493 209.043 10.0213 209.672 9.648C210.312 9.27467 211.021 9.088 211.8 9.088ZM215.064 13.6C215.064 12.9387 214.931 12.3627 214.664 11.872C214.397 11.3813 214.035 11.008 213.576 10.752C213.128 10.4853 212.632 10.352 212.088 10.352C211.544 10.352 211.048 10.48 210.6 10.736C210.152 10.992 209.795 11.3653 209.528 11.856C209.261 12.3467 209.128 12.9227 209.128 13.584C209.128 14.256 209.261 14.8427 209.528 15.344C209.795 15.8347 210.152 16.2133 210.6 16.48C211.048 16.736 211.544 16.864 212.088 16.864C212.632 16.864 213.128 16.736 213.576 16.48C214.035 16.2133 214.397 15.8347 214.664 15.344C214.931 14.8427 215.064 14.2613 215.064 13.6Z" fill="#949796"/>
<path d="M263.5 9C263.5 7.80653 263.026 6.66193 262.182 5.81802C261.338 4.97411 260.193 4.5 259 4.5C257.807 4.5 256.662 4.97411 255.818 5.81802C254.974 6.66193 254.5 7.80653 254.5 9C254.5 14.25 252.25 15.75 252.25 15.75H265.75C265.75 15.75 263.5 14.25 263.5 9Z" stroke="#949796" stroke-width="1.5" stroke-linecap="round" stroke-linejoin="round"/>
<path d="M260.297 18.75C260.166 18.9773 259.976 19.166 259.749 19.2971C259.521 19.4283 259.263 19.4973 259 19.4973C258.737 19.4973 258.479 19.4283 258.251 19.2971C258.024 19.166 257.834 18.9773 257.702 18.75" stroke="#949796" stroke-width="1.5" stroke-linecap="round" stroke-linejoin="round"/>
<path d="M286 18H284.544L278.688 9.12V18H277.232V6.832H278.688L284.544 15.696V6.832H286V18ZM292.148 18.144C291.326 18.144 290.58 17.9573 289.908 17.584C289.246 17.2107 288.724 16.6827 288.34 16C287.966 15.3067 287.78 14.5067 287.78 13.6C287.78 12.704 287.972 11.9147 288.356 11.232C288.75 10.5387 289.284 10.0107 289.956 9.648C290.628 9.27467 291.38 9.088 292.212 9.088C293.044 9.088 293.796 9.27467 294.468 9.648C295.14 10.0107 295.668 10.5333 296.052 11.216C296.446 11.8987 296.644 12.6933 296.644 13.6C296.644 14.5067 296.441 15.3067 296.036 16C295.641 16.6827 295.102 17.2107 294.42 17.584C293.737 17.9573 292.98 18.144 292.148 18.144ZM292.148 16.864C292.67 16.864 293.161 16.7413 293.62 16.496C294.078 16.2507 294.446 15.8827 294.724 15.392C295.012 14.9013 295.156 14.304 295.156 13.6C295.156 12.896 295.017 12.2987 294.74 11.808C294.462 11.3173 294.1 10.9547 293.652 10.72C293.204 10.4747 292.718 10.352 292.196 10.352C291.662 10.352 291.172 10.4747 290.724 10.72C290.286 10.9547 289.934 11.3173 289.668 11.808C289.401 12.2987 289.268 12.896 289.268 13.6C289.268 14.3147 289.396 14.9173 289.652 15.408C289.918 15.8987 290.27 16.2667 290.708 16.512C291.145 16.7467 291.625 16.864 292.148 16.864ZM300.176 10.432V15.6C300.176 16.0267 300.266 16.3307 300.448 16.512C300.629 16.6827 300.944 16.768 301.392 16.768H302.464V18H301.152C300.341 18 299.733 17.8133 299.328 17.44C298.922 17.0667 298.72 16.4533 298.72 15.6V10.432H297.584V9.232H298.72V7.024H300.176V9.232H302.464V10.432H300.176ZM304.821 7.808C304.544 7.808 304.309 7.712 304.117 7.52C303.925 7.328 303.829 7.09333 303.829 6.816C303.829 6.53867 303.925 6.304 304.117 6.112C304.309 5.92 304.544 5.824 304.821 5.824C305.088 5.824 305.312 5.92 305.493 6.112C305.685 6.304 305.781 6.53867 305.781 6.816C305.781 7.09333 305.685 7.328 305.493 7.52C305.312 7.712 305.088 7.808 304.821 7.808ZM305.525 9.232V18H304.069V9.232H305.525ZM311.417 10.432H309.577V18H308.121V10.432H306.985V9.232H308.121V8.608C308.121 7.62667 308.371 6.912 308.873 6.464C309.385 6.00533 310.201 5.776 311.321 5.776V6.992C310.681 6.992 310.227 7.12 309.961 7.376C309.705 7.62133 309.577 8.032 309.577 8.608V9.232H311.417V10.432ZM313.708 7.808C313.431 7.808 313.196 7.712 313.004 7.52C312.812 7.328 312.716 7.09333 312.716 6.816C312.716 6.53867 312.812 6.304 313.004 6.112C313.196 5.92 313.431 5.824 313.708 5.824C313.975 5.824 314.199 5.92 314.38 6.112C314.572 6.304 314.668 6.53867 314.668 6.816C314.668 7.09333 314.572 7.328 314.38 7.52C314.199 7.712 313.975 7.808 313.708 7.808ZM314.412 9.232V18H312.956V9.232H314.412ZM316.191 13.6C316.191 12.6933 316.372 11.904 316.735 11.232C317.098 10.5493 317.599 10.0213 318.239 9.648C318.89 9.27467 319.631 9.088 320.463 9.088C321.54 9.088 322.426 9.34933 323.119 9.872C323.823 10.3947 324.287 11.12 324.511 12.048H322.943C322.794 11.5147 322.5 11.0933 322.063 10.784C321.636 10.4747 321.103 10.32 320.463 10.32C319.631 10.32 318.959 10.608 318.447 11.184C317.935 11.7493 317.679 12.5547 317.679 13.6C317.679 14.656 317.935 15.472 318.447 16.048C318.959 16.624 319.631 16.912 320.463 16.912C321.103 16.912 321.636 16.7627 322.063 16.464C322.49 16.1653 322.783 15.7387 322.943 15.184H324.511C324.276 16.08 323.807 16.8 323.103 17.344C322.399 17.8773 321.519 18.144 320.463 18.144C319.631 18.144 318.89 17.9573 318.239 17.584C317.599 17.2107 317.098 16.6827 316.735 16C316.372 15.3173 316.191 14.5173 316.191 13.6ZM325.752 13.584C325.752 12.688 325.933 11.904 326.296 11.232C326.658 10.5493 327.154 10.0213 327.784 9.648C328.424 9.27467 329.133 9.088 329.912 9.088C330.68 9.088 331.346 9.25333 331.912 9.584C332.477 9.91467 332.898 10.3307 333.176 10.832V9.232H334.648V18H333.176V16.368C332.888 16.88 332.456 17.3067 331.88 17.648C331.314 17.9787 330.653 18.144 329.896 18.144C329.117 18.144 328.413 17.952 327.784 17.568C327.154 17.184 326.658 16.6453 326.296 15.952C325.933 15.2587 325.752 14.4693 325.752 13.584ZM333.176 13.6C333.176 12.9387 333.042 12.3627 332.776 11.872C332.509 11.3813 332.146 11.008 331.688 10.752C331.24 10.4853 330.744 10.352 330.2 10.352C329.656 10.352 329.16 10.48 328.712 10.736C328.264 10.992 327.906 11.3653 327.64 11.856C327.373 12.3467 327.24 12.9227 327.24 13.584C327.24 14.256 327.373 14.8427 327.64 15.344C327.906 15.8347 328.264 16.2133 328.712 16.48C329.16 16.736 329.656 16.864 330.2 16.864C330.744 16.864 331.24 16.736 331.688 16.48C332.146 16.2133 332.509 15.8347 332.776 15.344C333.042 14.8427 333.176 14.2613 333.176 13.6ZM338.726 10.432V15.6C338.726 16.0267 338.816 16.3307 338.998 16.512C339.179 16.6827 339.494 16.768 339.942 16.768H341.014V18H339.702C338.891 18 338.283 17.8133 337.878 17.44C337.472 17.0667 337.27 16.4533 337.27 15.6V10.432H336.134V9.232H337.27V7.024H338.726V9.232H341.014V10.432H338.726ZM343.371 7.808C343.094 7.808 342.859 7.712 342.667 7.52C342.475 7.328 342.379 7.09333 342.379 6.816C342.379 6.53867 342.475 6.304 342.667 6.112C342.859 5.92 343.094 5.824 343.371 5.824C343.638 5.824 343.862 5.92 344.043 6.112C344.235 6.304 344.331 6.53867 344.331 6.816C344.331 7.09333 344.235 7.328 344.043 7.52C343.862 7.712 343.638 7.808 343.371 7.808ZM344.075 9.232V18H342.619V9.232H344.075ZM350.223 18.144C349.401 18.144 348.655 17.9573 347.983 17.584C347.321 17.2107 346.799 16.6827 346.415 16C346.041 15.3067 345.855 14.5067 345.855 13.6C345.855 12.704 346.047 11.9147 346.431 11.232C346.825 10.5387 347.359 10.0107 348.031 9.648C348.703 9.27467 349.455 9.088 350.287 9.088C351.119 9.088 351.871 9.27467 352.543 9.648C353.215 10.0107 353.743 10.5333 354.127 11.216C354.521 11.8987 354.719 12.6933 354.719 13.6C354.719 14.5067 354.516 15.3067 354.111 16C353.716 16.6827 353.177 17.2107 352.495 17.584C351.812 17.9573 351.055 18.144 350.223 18.144ZM350.223 16.864C350.745 16.864 351.236 16.7413 351.695 16.496C352.153 16.2507 352.521 15.8827 352.799 15.392C353.087 14.9013 353.231 14.304 353.231 13.6C353.231 12.896 353.092 12.2987 352.815 11.808C352.537 11.3173 352.175 10.9547 351.727 10.72C351.279 10.4747 350.793 10.352 350.271 10.352C349.737 10.352 349.247 10.4747 348.799 10.72C348.361 10.9547 348.009 11.3173 347.743 11.808C347.476 12.2987 347.343 12.896 347.343 13.6C347.343 14.3147 347.471 14.9173 347.727 15.408C347.993 15.8987 348.345 16.2667 348.783 16.512C349.22 16.7467 349.7 16.864 350.223 16.864ZM360.747 9.072C361.813 9.072 362.677 9.39733 363.339 10.048C364 10.688 364.331 11.616 364.331 12.832V18H362.891V13.04C362.891 12.1653 362.672 11.4987 362.235 11.04C361.797 10.5707 361.2 10.336 360.443 10.336C359.675 10.336 359.061 10.576 358.603 11.056C358.155 11.536 357.931 12.2347 357.931 13.152V18H356.475V9.232H357.931V10.48C358.219 10.032 358.608 9.68533 359.099 9.44C359.6 9.19467 360.149 9.072 360.747 9.072ZM369.655 18.144C368.983 18.144 368.38 18.032 367.847 17.808C367.313 17.5733 366.892 17.2533 366.583 16.848C366.273 16.432 366.103 15.9573 366.071 15.424H367.575C367.617 15.8613 367.82 16.2187 368.183 16.496C368.556 16.7733 369.041 16.912 369.639 16.912C370.193 16.912 370.631 16.7893 370.951 16.544C371.271 16.2987 371.431 15.9893 371.431 15.616C371.431 15.232 371.26 14.9493 370.919 14.768C370.577 14.576 370.049 14.3893 369.335 14.208C368.684 14.0373 368.151 13.8667 367.735 13.696C367.329 13.5147 366.977 13.2533 366.679 12.912C366.391 12.56 366.247 12.1013 366.247 11.536C366.247 11.088 366.38 10.6773 366.647 10.304C366.913 9.93067 367.292 9.63733 367.783 9.424C368.273 9.2 368.833 9.088 369.463 9.088C370.433 9.088 371.217 9.33333 371.815 9.824C372.412 10.3147 372.732 10.9867 372.775 11.84H371.319C371.287 11.3813 371.1 11.0133 370.759 10.736C370.428 10.4587 369.98 10.32 369.415 10.32C368.892 10.32 368.476 10.432 368.167 10.656C367.857 10.88 367.703 11.1733 367.703 11.536C367.703 11.824 367.793 12.064 367.975 12.256C368.167 12.4373 368.401 12.5867 368.679 12.704C368.967 12.8107 369.361 12.9333 369.863 13.072C370.492 13.2427 371.004 13.4133 371.399 13.584C371.793 13.744 372.129 13.9893 372.407 14.32C372.695 14.6507 372.844 15.0827 372.855 15.616C372.855 16.096 372.721 16.528 372.455 16.912C372.188 17.296 371.809 17.6 371.319 17.824C370.839 18.0373 370.284 18.144 369.655 18.144Z" fill="#949796"/>
</svg>
