<svg width="268" height="40" viewBox="0 0 268 40" fill="none" xmlns="http://www.w3.org/2000/svg">
<rect width="40" height="40" rx="4" fill="url(#paint0_linear_3612_20)"/>
<path fill-rule="evenodd" clip-rule="evenodd" d="M32 24.9151C31.9952 24.8886 31.9952 24.8615 32 24.8351L31.9434 23.355C31.9384 23.3228 31.9384 23.29 31.9434 23.2579C31.8016 21.4703 31.0886 19.7777 29.9116 18.4348C29.7229 18.2131 29.5133 18.0153 29.304 17.8179L29.304 17.8179L29.304 17.8178C29.2057 17.7251 29.1075 17.6325 29.0117 17.5376L28.8759 17.4118L29.0626 17.3204C30.2764 16.7496 31.1544 15.6367 31.434 14.3146C31.7605 12.8996 31.3313 11.4153 30.3021 10.4001C29.5736 9.63549 28.6019 9.15404 27.5572 9.04L27.2006 9H26.8158H26.7026C26.0566 9.03802 25.4277 9.22365 24.8632 9.54288C22.7674 10.6098 21.9119 13.1807 22.9445 15.3089C22.9509 15.3238 22.9564 15.3378 22.9623 15.3529L22.9623 15.3529C22.9723 15.3784 22.9834 15.4066 23.0011 15.446C22.1796 15.4771 21.3662 15.6233 20.5845 15.8803C19.7965 16.1414 19.0494 16.5147 18.3659 16.989V16.8575C18.31 15.9621 18.0649 15.0892 17.6471 14.2974C16.2687 11.7467 13.4478 10.35 10.6065 10.8115C9.14117 11.0214 7.78796 11.7216 6.76359 12.8002C5.75583 13.8524 5.14334 15.2267 5.03174 16.6861C4.90377 17.9427 5.16477 19.2085 5.77881 20.3091C7.54366 23.4419 11.3931 24.6845 14.6305 23.1664L14.755 23.1207C14.7543 23.134 14.7543 23.1474 14.755 23.1607V23.355C14.6179 24.949 14.9298 26.5497 15.6549 27.9724C17.4238 31.4199 21.2291 33.2806 25.0047 32.544C27.4289 32.1111 29.5476 30.637 30.8115 28.5038C31.4911 27.4231 31.8991 26.1912 32 24.9151ZM16.4351 25.9095C16.2698 25.3105 16.1879 24.6912 16.1917 24.0694C16.2063 21.027 18.1352 18.3306 20.9911 17.3605C21.9821 17.0199 23.0346 16.901 24.0756 17.0119C27.0116 17.3067 29.4574 19.4118 30.2107 22.2921C30.867 24.6778 30.1861 27.235 28.4335 28.9668C27.3837 30.0933 25.9876 30.8284 24.4718 31.0526C20.8873 31.6517 17.4285 29.4382 16.4351 25.9095ZM11.665 11.6458H11.1783C11.0651 11.6458 10.9463 11.6458 10.8331 11.6801C9.529 11.8577 8.32147 12.4713 7.40331 13.4231C5.61774 15.2168 5.31365 18.0254 6.67321 20.1663C7.71045 21.8627 9.54339 22.8961 11.5179 22.8978C12.7092 22.9516 13.8866 22.6214 14.8797 21.9549C16.4239 20.9985 17.3972 19.3306 17.4775 17.5033C17.5478 16.4291 17.2825 15.3598 16.7191 14.446C15.6514 12.6702 13.7277 11.6031 11.6707 11.6458H11.665ZM30.2391 11.8286C30.5266 12.3803 30.6596 13.0007 30.624 13.623H30.6297C30.5499 14.8294 29.8467 15.9043 28.7789 16.4517C28.3322 16.7058 27.8357 16.858 27.3244 16.8975C27.0703 16.9097 26.8156 16.8905 26.566 16.8403C25.9198 16.7512 25.3044 16.5062 24.7719 16.126C23.4062 15.1319 22.9929 13.2636 23.8098 11.7772C24.4705 10.6075 25.7058 9.88966 27.0394 9.90033C28.373 9.911 29.5968 10.6485 30.2391 11.8286Z" fill="white"/>
<rect x="52" width="216" height="40" rx="20" fill="#F4F5F5"/>
<path d="M71.3333 24.6667C74.2789 24.6667 76.6667 22.2789 76.6667 19.3333C76.6667 16.3878 74.2789 14 71.3333 14C68.3878 14 66 16.3878 66 19.3333C66 22.2789 68.3878 24.6667 71.3333 24.6667Z" stroke="#949796" stroke-linecap="round" stroke-linejoin="round"/>
<path d="M78.0001 26L75.1001 23.1" stroke="#949796" stroke-linecap="round" stroke-linejoin="round"/>
<path d="M88.158 25.168C87.4393 25.168 86.814 25.0373 86.282 24.776C85.75 24.5147 85.3393 24.1507 85.05 23.684C84.7607 23.2173 84.616 22.676 84.616 22.06H85.848C85.848 22.4427 85.9367 22.7973 86.114 23.124C86.2913 23.4413 86.548 23.698 86.884 23.894C87.2293 24.0807 87.654 24.174 88.158 24.174C88.8207 24.174 89.334 24.0153 89.698 23.698C90.062 23.3807 90.244 22.984 90.244 22.508C90.244 22.116 90.16 21.8033 89.992 21.57C89.824 21.3273 89.5953 21.1313 89.306 20.982C89.026 20.8327 88.6993 20.702 88.326 20.59C87.962 20.478 87.5793 20.352 87.178 20.212C86.422 19.9507 85.862 19.6287 85.498 19.246C85.134 18.854 84.952 18.3453 84.952 17.72C84.9427 17.1973 85.064 16.7353 85.316 16.334C85.568 15.9233 85.9227 15.606 86.38 15.382C86.8467 15.1487 87.3973 15.032 88.032 15.032C88.6573 15.032 89.1987 15.1487 89.656 15.382C90.1227 15.6153 90.482 15.9373 90.734 16.348C90.9953 16.7587 91.1307 17.2253 91.14 17.748H89.908C89.908 17.4773 89.838 17.2113 89.698 16.95C89.558 16.6793 89.3433 16.46 89.054 16.292C88.774 16.124 88.4193 16.04 87.99 16.04C87.458 16.0307 87.0193 16.166 86.674 16.446C86.338 16.726 86.17 17.1133 86.17 17.608C86.17 18.028 86.2867 18.35 86.52 18.574C86.7627 18.798 87.0987 18.9847 87.528 19.134C87.9573 19.274 88.452 19.4373 89.012 19.624C89.4787 19.792 89.8987 19.988 90.272 20.212C90.6453 20.436 90.9347 20.7253 91.14 21.08C91.3547 21.4347 91.462 21.8873 91.462 22.438C91.462 22.9047 91.3407 23.348 91.098 23.768C90.8553 24.1787 90.4867 24.5147 89.992 24.776C89.5067 25.0373 88.8953 25.168 88.158 25.168ZM96.0234 25.168C95.3608 25.168 94.7728 25.0187 94.2594 24.72C93.7461 24.412 93.3401 23.9873 93.0414 23.446C92.7521 22.9047 92.6074 22.2653 92.6074 21.528C92.6074 20.8 92.7521 20.1653 93.0414 19.624C93.3308 19.0733 93.7321 18.6487 94.2454 18.35C94.7681 18.042 95.3701 17.888 96.0514 17.888C96.7234 17.888 97.3021 18.042 97.7874 18.35C98.2821 18.6487 98.6601 19.0453 98.9214 19.54C99.1828 20.0347 99.3134 20.5667 99.3134 21.136C99.3134 21.2387 99.3088 21.3413 99.2994 21.444C99.2994 21.5467 99.2994 21.6633 99.2994 21.794H93.7694C93.7974 22.326 93.9188 22.7693 94.1334 23.124C94.3574 23.4693 94.6328 23.7307 94.9594 23.908C95.2954 24.0853 95.6501 24.174 96.0234 24.174C96.5088 24.174 96.9148 24.062 97.2414 23.838C97.5681 23.614 97.8061 23.3107 97.9554 22.928H99.1174C98.9308 23.572 98.5714 24.1087 98.0394 24.538C97.5168 24.958 96.8448 25.168 96.0234 25.168ZM96.0234 18.882C95.4634 18.882 94.9641 19.0547 94.5254 19.4C94.0961 19.736 93.8488 20.2307 93.7834 20.884H98.1514C98.1234 20.2587 97.9088 19.7687 97.5074 19.414C97.1061 19.0593 96.6114 18.882 96.0234 18.882ZM103.024 25.168C102.445 25.168 101.964 25.07 101.582 24.874C101.199 24.678 100.914 24.4167 100.728 24.09C100.541 23.7633 100.448 23.4087 100.448 23.026C100.448 22.3167 100.718 21.7707 101.26 21.388C101.801 21.0053 102.538 20.814 103.472 20.814H105.348V20.73C105.348 20.1233 105.189 19.666 104.872 19.358C104.554 19.0407 104.13 18.882 103.598 18.882C103.14 18.882 102.744 18.9987 102.408 19.232C102.081 19.456 101.876 19.7873 101.792 20.226H100.588C100.634 19.722 100.802 19.2973 101.092 18.952C101.39 18.6067 101.759 18.3453 102.198 18.168C102.636 17.9813 103.103 17.888 103.598 17.888C104.568 17.888 105.296 18.1493 105.782 18.672C106.276 19.1853 106.524 19.8713 106.524 20.73V25H105.474L105.404 23.754C105.208 24.146 104.918 24.482 104.536 24.762C104.162 25.0327 103.658 25.168 103.024 25.168ZM103.206 24.174C103.654 24.174 104.036 24.0573 104.354 23.824C104.68 23.5907 104.928 23.2873 105.096 22.914C105.264 22.5407 105.348 22.1487 105.348 21.738V21.724H103.57C102.879 21.724 102.389 21.8453 102.1 22.088C101.82 22.3213 101.68 22.6153 101.68 22.97C101.68 23.334 101.81 23.628 102.072 23.852C102.342 24.0667 102.72 24.174 103.206 24.174ZM108.13 25V18.056H109.194L109.292 19.386C109.506 18.9287 109.833 18.5647 110.272 18.294C110.71 18.0233 111.252 17.888 111.896 17.888V19.12H111.574C111.163 19.12 110.785 19.1947 110.44 19.344C110.094 19.484 109.819 19.7267 109.614 20.072C109.408 20.4173 109.306 20.8933 109.306 21.5V25H108.13ZM115.99 25.168C115.327 25.168 114.73 25.0187 114.198 24.72C113.675 24.412 113.26 23.9873 112.952 23.446C112.653 22.8953 112.504 22.256 112.504 21.528C112.504 20.8 112.653 20.1653 112.952 19.624C113.26 19.0733 113.675 18.6487 114.198 18.35C114.73 18.042 115.327 17.888 115.99 17.888C116.811 17.888 117.502 18.1027 118.062 18.532C118.631 18.9613 118.99 19.5353 119.14 20.254H117.936C117.842 19.8247 117.614 19.4933 117.25 19.26C116.886 19.0173 116.461 18.896 115.976 18.896C115.584 18.896 115.215 18.994 114.87 19.19C114.524 19.386 114.244 19.68 114.03 20.072C113.815 20.464 113.708 20.9493 113.708 21.528C113.708 22.1067 113.815 22.592 114.03 22.984C114.244 23.376 114.524 23.6747 114.87 23.88C115.215 24.076 115.584 24.174 115.976 24.174C116.461 24.174 116.886 24.0573 117.25 23.824C117.614 23.5813 117.842 23.2407 117.936 22.802H119.14C119 23.502 118.645 24.0713 118.076 24.51C117.506 24.9487 116.811 25.168 115.99 25.168ZM120.624 25V14.92H121.8V19.246C122.033 18.8167 122.364 18.4853 122.794 18.252C123.223 18.0093 123.69 17.888 124.194 17.888C124.996 17.888 125.64 18.14 126.126 18.644C126.611 19.1387 126.854 19.904 126.854 20.94V25H125.692V21.066C125.692 19.6193 125.108 18.896 123.942 18.896C123.335 18.896 122.826 19.1153 122.416 19.554C122.005 19.9833 121.8 20.5993 121.8 21.402V25H120.624Z" fill="#949796"/>
<defs>
<linearGradient id="paint0_linear_3612_20" x1="-6" y1="-4.5" x2="55.8133" y2="51.0877" gradientUnits="userSpaceOnUse">
<stop offset="0.03125" stop-color="#96DCD0"/>
<stop offset="0.0520833" stop-color="#6CCEBD"/>
<stop offset="0.333333" stop-color="#2DB8A1"/>
<stop offset="0.697917" stop-color="#28A38F"/>
<stop offset="1" stop-color="#208171"/>
</linearGradient>
</defs>
</svg>
